<svg xmlns="http://www.w3.org/2000/svg" viewBox="0 0 512 512">
  <g stroke="#000" fill="none" stroke-linejoin="round" stroke-linecap="round">
    <circle cx="256.00" cy="256.00" r="204.80" stroke-width="7.68"/>
    <polygon points="402.32,171.52 402.32,340.48 256.00,424.96 109.68,340.48 109.68,171.52 256.00,87.04" stroke-width="6.14"/>
    <polygon points="335.81,209.92 335.81,302.08 256.00,348.16 176.19,302.08 176.19,209.92 256.00,163.84" stroke-width="6.14"/>
    <line x1="402.32" y1="171.52" x2="335.81" y2="209.92" />
    <line x1="402.32" y1="340.48" x2="335.81" y2="302.08" />
    <line x1="256.00" y1="424.96" x2="256.00" y2="348.16" />
    <line x1="109.68" y1="340.48" x2="176.19" y2="302.08" />
    <line x1="109.68" y1="171.52" x2="176.19" y2="209.92" />
    <line x1="256.00" y1="87.04" x2="256.00" y2="163.84" />
    <line x1="402.32" y1="171.52" x2="256.00" y2="424.96" />
    <line x1="402.32" y1="340.48" x2="109.68" y2="340.48" />
    <line x1="256.00" y1="424.96" x2="109.68" y2="171.52" />
    <line x1="109.68" y1="340.48" x2="256.00" y2="87.04" />
    <line x1="109.68" y1="171.52" x2="402.32" y2="171.52" />
    <line x1="256.00" y1="87.04" x2="402.32" y2="340.48" />
    <polygon points="256.00,158.72 340.25,304.64 171.75,304.64" stroke-width="6.14"/>
    <polygon points="256.00,317.44 202.79,225.28 309.21,225.28" fill="#000"/>
  </g>
</svg>